<?xml version="1.0" standalone="no"?>
<!DOCTYPE svg PUBLIC "-//W3C//DTD SVG 20010904//EN"
 "http://www.w3.org/TR/2001/REC-SVG-20010904/DTD/svg10.dtd">
<svg version="1.0" xmlns="http://www.w3.org/2000/svg"
 width="281.000000pt" height="281.000000pt" viewBox="0 0 281.000000 281.000000"
 preserveAspectRatio="xMidYMid meet">
<metadata>
Created by potrace 1.11, written by Peter Selinger 2001-2013
</metadata>
<g transform="translate(0.000000,281.000000) scale(0.100000,-0.100000)"
fill="#000000" stroke="none">
<path d="M1265 2804 c-363 -56 -620 -179 -850 -409 -199 -198 -326 -434 -387
-718 -29 -136 -32 -398 -5 -530 56 -277 181 -519 370 -714 124 -128 236 -211
392 -288 209 -103 387 -145 621 -145 81 0 179 6 230 15 600 103 1057 562 1160
1165 20 120 15 397 -11 509 -112 495 -462 889 -931 1047 -138 46 -248 65 -409
69 -82 2 -163 1 -180 -1z"/>
</g>
</svg>
